<svg width="25" height="24" viewBox="0 0 25 24" fill="none" xmlns="http://www.w3.org/2000/svg">
<g clip-path="url(#clip0_433_743)">
<path d="M24.008 12.2245C24.008 11.2412 23.9296 10.5237 23.76 9.7796H12.7296V14.2176H19.2042C19.0737 15.3205 18.3688 16.9814 16.8023 18.0975L16.7804 18.2461L20.268 20.9963L20.5096 21.0209C22.7287 18.9347 24.008 15.8653 24.008 12.2245Z" fill="#4285F4"/>
<path d="M12.7296 23.9176C15.9016 23.9176 18.5645 22.8545 20.5096 21.0209L16.8023 18.0975C15.8103 18.8018 14.4788 19.2934 12.7296 19.2934C9.62286 19.2934 6.98604 17.2073 6.04608 14.3239L5.90831 14.3359L2.28186 17.1927L2.23443 17.3269C4.16636 21.2334 8.13468 23.9176 12.7296 23.9176Z" fill="#34A853"/>
<path d="M6.04608 14.3239C5.79807 13.5799 5.65466 12.7825 5.65466 11.9587C5.65466 11.1349 5.7982 10.3376 6.03316 9.59356L6.02659 9.43508L2.3547 6.53236L2.23457 6.59053C1.43833 8.21163 0.981445 10.0321 0.981445 11.9587C0.981445 13.8854 1.43819 15.7058 2.23443 17.3269L6.04608 14.3239Z" fill="#FBBC05"/>
<path d="M12.7296 4.62403C14.9356 4.62403 16.4237 5.59401 17.2722 6.40461L20.5879 3.10928C18.5515 1.1826 15.9016 0 12.7296 0C8.13467 0 4.16649 2.68403 2.23457 6.59053L6.03316 9.59356C6.98616 6.71017 9.62285 4.62403 12.7296 4.62403Z" fill="#EB4335"/>
</g>
<defs>
<clipPath id="clip0_433_743">
<rect width="23.04" height="24" fill="white" transform="translate(0.97998)"/>
</clipPath>
</defs>
</svg>
